PathFileType	4	(X/Y/Z)	Patient4_TMGait_0pt4_02_right_28.trc.trc
DataRate	CameraRate	NumFrames	NumMarkers	Units	OrigDataRate	OrigDataStartFrame	OrigNumFrames
72.916666666667	72.916666666667	4	33	mm	72.916666666667	71	       141
Frame#	Time	Sacral			L.Shoulder			Chest			R.Shoulder			Neck			R.ASIS			L.ASIS			R.Thigh.Superior			R.Thigh.Lateral			R.Thigh.Inferior			R.Patella			L.Thigh.Superior			L.Thigh.Lateral			L.Thigh.Inferior			L.Patella			L.Shank.Superior			L.Shank.Lateral			L.Shank.Inferior			R.Shank.Superior			R.Shank.Lateral			R.Shank.Inferior			R.Heel			R.Midfoot.Superior			R.Midfoot.Lateral			R.Toe			L.Heel			L.Midfoot.Lateral			L.Midfoot.Superior			L.Toe			L.Elbow			L.Wrist			R.Elbow			R.Wrist			
		X1	Y1	Z1	X2	Y2	Z2	X3	Y3	Z3	X4	Y4	Z4	X5	Y5	Z5	X6	Y6	Z6	X7	Y7	Z7	X8	Y8	Z8	X9	Y9	Z9	X10	Y10	Z10	X11	Y11	Z11	X12	Y12	Z12	X13	Y13	Z13	X14	Y14	Z14	X15	Y15	Z15	X16	Y16	Z16	X17	Y17	Z17	X18	Y18	Z18	X19	Y19	Z19	X20	Y20	Z20	X21	Y21	Z21	X22	Y22	Z22	X23	Y23	Z23	X24	Y24	Z24	X25	Y25	Z25	X26	Y26	Z26	X27	Y27	Z27	X28	Y28	Z28	X29	Y29	Z29	X30	Y30	Z30	X31	Y31	Z31	X32	Y32	Z32	X33	Y33	Z33	

71	37.850000000000	903.261209936354	1002.006668427663	519.402258963511	1047.404392543541	1431.019491688884	316.623207503639	1175.480854185409	1363.122038901416	458.695540955141	1121.172368975108	1435.826632855077	643.512866832991	1057.110761654530	1491.399025012182	473.271235093112	1143.800827273390	940.057469274815	607.734918973699	1096.999730963964	956.755301343647	335.507382700024	1143.796620615889	727.906665117925	581.666604376589	1045.484066570777	631.416567077087	650.062032085278	1103.044036789635	567.715071273128	567.125296157251	1086.475141320051	483.763868631707	572.988495594493	1173.467353695380	769.931481397553	360.442055833981	1118.497173816404	640.452756261716	286.105187726471	1226.347595402927	581.913785054668	338.784217262406	1249.770837659600	513.021971708465	333.879839087028	1225.032015731435	440.121891731971	325.120401555167	1141.101575128270	319.245551684643	278.501069513215	1219.688268674119	210.079770971815	326.644767408581	1051.282766507360	398.435644035255	581.180699313055	974.095675459940	300.900911880539	647.172701271192	1004.130070851969	203.425761269132	579.655239361531	859.282661873392	42.814624042755	552.469238449692	1031.518409670449	95.960690266298	584.207497654876	944.168588074790	36.820690833957	625.548985129859	1152.242312271312	42.570739607429	608.851678092802	1118.863085832045	44.160210402572	370.925029681586	1186.806480168450	40.175617685970	286.007202830700	1268.267920895900	107.262175881665	302.846583821545	1394.979995743667	61.950139567181	266.734923968223	918.276465738910	1096.919849299228	237.892285195312	898.909600615505	836.249109209432	254.635582450264	1269.748308355694	1132.680978011239	757.637131761631	1483.123592690191	1235.327573057002	679.684771749075	
72	37.863714285714	903.945562164090	1000.962548534820	516.616914236484	1046.668320387906	1430.175133538889	314.021402464387	1174.744122158735	1362.868739518205	456.326178863672	1119.697216687088	1435.155541961447	641.143873029641	1055.985749285989	1490.617029867624	470.729239487084	1144.390335460484	939.395914460040	605.863160841467	1098.372796521977	955.565934783971	333.563360460311	1143.768505591337	726.895454217557	580.253397899393	1044.643424769100	630.900138910430	648.504771439270	1102.039497038000	566.727910809924	565.863872827847	1084.803037564618	482.545945815501	571.722603463192	1174.597032493817	767.921947874564	358.619049723839	1117.707269639471	638.200820236508	286.045590041899	1225.902862340965	579.696832705184	338.185141744158	1248.091890877376	509.985893633660	334.178667225216	1222.602339044655	436.849072174821	325.671075314668	1136.825308570004	316.963926655910	279.707560777640	1213.662801610965	206.916335522349	328.507209414709	1048.791459637221	397.523332201978	580.157739272000	970.668058205259	300.929464936734	646.444329780589	999.699211057696	202.973381820395	579.282668240706	853.777722978548	42.847359931947	552.562515909192	1026.007927010061	95.941382092913	584.221416647088	938.640264312265	36.764281597281	625.561020607641	1146.700604258248	42.502204359310	608.914145716938	1110.325960295471	42.611081971543	373.243768832733	1177.806985452270	38.703756774719	287.849231916679	1260.233311083216	104.321947396974	305.233588755792	1386.397601381572	57.810087174882	267.997926765847	916.786224374063	1096.567591329459	235.552796519079	897.428020073903	835.840093586141	252.297124368810	1267.490534904638	1131.092628564067	755.039383374505	1480.365360499860	1235.308107783346	677.833892322858	
73	37.877428571429	904.631799579095	999.959597956529	513.708910869673	1046.107426153268	1429.294578053873	311.208293934954	1174.127819368268	1362.618494122988	453.818547477191	1118.289529653998	1434.571549850500	638.605046056105	1054.964887908354	1489.871156731594	467.963996040860	1144.994596310018	938.697607714041	603.820185903147	1099.726811967784	954.515084000591	331.491880668446	1144.053246708555	725.899691644669	578.565339918488	1044.327833981317	630.275202753773	646.706974182872	1101.587186684106	565.695547954440	564.312583264891	1083.727850710508	481.180335796171	570.176740472677	1175.740146863497	766.064897952690	356.855972737413	1117.265856411604	636.393256218768	285.669605430371	1225.497747158634	577.751032402697	337.728511464081	1246.461068615720	507.260938353615	334.438925106671	1220.314573088539	433.883176727055	325.995309704862	1132.954887314543	314.941655900917	280.335816238185	1207.955373877981	204.092101497419	329.995368363462	1046.796229887073	396.488323134645	578.909859842647	967.644076916019	300.964777133979	645.555960881917	995.475298891448	202.482770895508	578.810832633131	848.295731064883	42.986785969108	552.681716026279	1020.535273991957	95.938673426740	584.226464902331	933.140470029879	36.746718004746	625.574447244807	1141.183788792135	42.375904260445	608.990141543438	1102.198065809543	41.217654763442	374.946215394950	1169.365738521341	37.539796872521	289.189375824878	1252.546954138330	101.902657744512	307.256517807696	1378.334828420766	54.491422938981	269.118233283398	916.011822271009	1095.913065615673	232.862256285727	897.091449632831	835.097806427567	249.228524135110	1264.444787533511	1129.189520212789	752.699200448150	1477.458407575237	1233.862178934847	676.375922844677	
74	37.891142857143	905.284132655952	999.033024949845	510.716616135918	1045.717607229323	1428.423197070757	308.226401879290	1173.632699392293	1362.383127164103	451.197161033647	1116.990578521933	1434.105344262706	635.918067928519	1054.063450689278	1489.195795357442	465.013663674257	1145.579619900969	938.002159823489	601.591972558618	1100.981142721078	953.652508944567	329.266762401744	1144.586452418548	724.961161480820	576.585516313165	1044.485911751340	629.575810887827	644.671576068811	1101.637625906109	564.647055510102	562.484252500834	1083.225033717823	479.692743907562	568.386527664764	1176.868485115602	764.490851601667	355.118628299111	1117.213963514014	635.103606089443	284.908946012997	1225.178540687291	576.167550737286	337.295998197632	1244.957387152831	504.963531283594	334.544265698915	1218.275036200796	431.333327722727	326.023648552861	1129.641056845294	313.263164876927	280.316251580477	1202.728914646887	201.721202192824	331.048991011861	1045.262368461071	395.367813163661	577.458933986821	964.992251699410	301.037849001252	644.514230794717	991.454967931477	201.992518889412	578.250080125487	842.841246559912	43.282913307772	552.827085511894	1015.118582039495	95.965433970068	584.228682840194	927.677159931559	36.793498457676	625.588378467977	1135.698471889029	42.181474307565	609.079870093004	1094.684211548709	40.073762883731	376.043233087897	1161.675310114385	36.698558333505	290.038024283222	1245.397714449832	100.064997030951	308.831054029138	1370.966943027904	52.031657027615	270.033113617998	916.018452615494	1094.978963034049	229.817443648013	897.945376798726	834.050448265088	245.460728486215	1260.631087823883	1127.015989197293	750.583475090299	1474.448206019931	1230.977060031305	675.292017941701	
